<svg width="20" height="20" viewBox="0 0 20 20" fill="none" xmlns="http://www.w3.org/2000/svg">
<path fill-rule="evenodd" clip-rule="evenodd" d="M9.99969 0.0610352C15.5226 0.0610352 20 4.53786 20 10.0607C20 15.052 16.3431 19.1887 11.5627 19.9391V12.9514L13.892 12.9514H13.8926L14.3358 10.0607L14.3357 10.0607L11.5621 10.0607V8.18503C11.5621 7.39439 11.9498 6.62326 13.1916 6.62326H14.4528V4.16235C14.4528 4.16235 14.4528 4.16235 14.4527 4.16235C14.4527 4.16235 13.3086 3.96729 12.2144 3.96729C12.2144 3.96729 12.2144 3.96728 12.2143 3.96728C9.9302 3.96728 8.43732 5.35166 8.43732 7.85768V10.0607H5.89838V12.9514L5.89844 12.9514L8.43732 12.9514V19.9391C3.65692 19.1887 0 15.052 0 10.0607C0 4.53786 4.47682 0.0610352 9.99969 0.0610352Z" fill="black"/>
</svg>
