<svg width="20" height="20" viewBox="0 0 20 20" fill="none" xmlns="http://www.w3.org/2000/svg">
<path fill-rule="evenodd" clip-rule="evenodd" d="M10 20C15.5228 20 20 15.5228 20 10C20 4.47715 15.5228 0 10 0C4.47715 0 0 4.47715 0 10C0 15.5228 4.47715 20 10 20ZM10.0059 4.24702C13.6828 4.24702 16.674 6.67452 16.674 9.65827C16.674 10.8526 16.2115 11.9276 15.2453 12.9876C13.8465 14.5976 10.7184 16.5589 10.0065 16.8589C9.31381 17.1511 9.39478 16.6933 9.42661 16.5133L9.42904 16.4995C9.44591 16.3995 9.52404 15.9289 9.52404 15.9289C9.54591 15.7583 9.56966 15.4945 9.50216 15.3258C9.42716 15.1401 9.13154 15.0439 8.91466 14.997C5.71029 14.5733 3.33779 12.3333 3.33779 9.65827C3.33779 6.67452 6.32904 4.24702 10.0059 4.24702ZM12.5832 11.3804H14.4563V11.3823C14.5269 11.3823 14.5838 11.3254 14.5838 11.2548V10.7817C14.5838 10.7117 14.5263 10.6542 14.4563 10.6542H13.1832V10.1629H14.4563C14.5269 10.1629 14.5838 10.106 14.5838 10.0354V9.56228C14.5838 9.49228 14.5263 9.43478 14.4563 9.43478H13.1832V8.94353H14.4563C14.5269 8.94353 14.5838 8.88666 14.5838 8.81603V8.34291C14.5838 8.27291 14.5263 8.21541 14.4563 8.21541H12.5832C12.5126 8.21541 12.4557 8.27228 12.4557 8.34291V8.34603V11.251V11.2529C12.4557 11.3235 12.5126 11.3804 12.5832 11.3804ZM7.52643 11.3805C7.59643 11.3805 7.65393 11.3236 7.65393 11.253V10.7799C7.65393 10.7099 7.59643 10.6524 7.52643 10.6524H6.25331V8.3424C6.25331 8.2724 6.19581 8.2149 6.12581 8.2149H5.65269C5.58206 8.2149 5.52519 8.27177 5.52519 8.3424V11.2505V11.253C5.52519 11.3236 5.58206 11.3805 5.65269 11.3805H7.52581H7.52643ZM8.17941 8.21541H8.65191C8.72233 8.21541 8.77941 8.27249 8.77941 8.34291V11.2529C8.77941 11.3233 8.72233 11.3804 8.65191 11.3804H8.17941C8.109 11.3804 8.05191 11.3233 8.05191 11.2529V8.34291C8.05191 8.27249 8.109 8.21541 8.17941 8.21541ZM11.873 8.21541H11.3999C11.3292 8.21541 11.2724 8.27228 11.2724 8.34291V10.071L9.94112 8.27291L9.93612 8.26635L9.93112 8.25978C9.92923 8.25694 9.92698 8.25482 9.92491 8.25287L9.923 8.25103L9.9205 8.24916C9.9205 8.24916 9.91612 8.24541 9.91362 8.24353L9.90987 8.24103C9.90987 8.24103 9.9055 8.23791 9.903 8.23666L9.89925 8.23416L9.89237 8.23041L9.88862 8.22853C9.88612 8.22728 9.88112 8.22541 9.88112 8.22541L9.87675 8.22416L9.86925 8.22166L9.86487 8.22041L9.85737 8.21853L9.85175 8.21791L9.84487 8.21728H9.838H9.83362H9.36362C9.29362 8.21728 9.23612 8.27416 9.23612 8.34478V11.2548C9.23612 11.3248 9.293 11.3823 9.36362 11.3823H9.83675C9.90737 11.3823 9.96425 11.3254 9.96425 11.2548V9.52666L11.2974 11.3273C11.3067 11.3404 11.318 11.351 11.3305 11.3592L11.3317 11.3604L11.3399 11.3654L11.3436 11.3673L11.3499 11.3704L11.3561 11.3729L11.3599 11.3742C11.363 11.3754 11.3655 11.376 11.3686 11.3767H11.3705C11.3811 11.3798 11.3924 11.3817 11.4036 11.3817H11.8736C11.9436 11.3817 12.0011 11.3248 12.0011 11.2542V8.34416C12.0011 8.27416 11.9442 8.21666 11.8736 8.21666L11.873 8.21541Z" fill="black"/>
</svg>
