<svg width="20" height="20" viewBox="0 0 20 20" fill="none" xmlns="http://www.w3.org/2000/svg">
<path fill-rule="evenodd" clip-rule="evenodd" d="M10 20C15.5228 20 20 15.5228 20 10C20 4.47715 15.5228 0 10 0C4.47715 0 0 4.47715 0 10C0 15.5228 4.47715 20 10 20ZM14.9789 6.92286C15.4833 6.86261 15.9638 6.72894 16.4109 6.53045C16.0767 7.03021 15.6539 7.4692 15.1668 7.8211C15.3248 11.3275 12.7096 15.2369 8.08065 15.2369C6.67304 15.2369 5.36214 14.8242 4.25884 14.1169C5.58139 14.2728 6.9019 13.9057 7.95002 13.0839C6.85836 13.0637 5.93784 12.3432 5.62088 11.3528C6.01177 11.4277 6.39608 11.4054 6.74697 11.3102C5.54797 11.0697 4.72011 9.98922 4.74745 8.83427C5.08315 9.02111 5.46797 9.13301 5.87607 9.14618C4.76619 8.40389 4.45175 6.93805 5.10492 5.81754C6.33481 7.3259 8.17179 8.31832 10.2432 8.42212C9.87966 6.86312 11.0625 5.36133 12.6721 5.36133C13.3891 5.36133 14.0377 5.66412 14.4919 6.14868C15.06 6.03678 15.5936 5.82918 16.0752 5.54361C15.8893 6.12589 15.4939 6.61451 14.9789 6.92286Z" fill="black"/>
</svg>
